<svg xmlns="http://www.w3.org/2000/svg" id="Layer_1" data-name="Layer 1" viewBox="0 0 780 250"><defs><style>.cls-1{fill:#233e80;}.cls-2{fill:#8aafdd;}</style></defs><path class="cls-1" d="M343.22,112.72V48.41H321.47V135.8a49.84,49.84,0,0,1,11.22-15.43,53,53,0,0,1,10.53-7.65"></path><path class="cls-1" d="M462.21,200.67H440.46V128.16A53.09,53.09,0,0,0,451,120.52a49.6,49.6,0,0,0,11.22-15.44Z"></path><path class="cls-1" d="M258.05,178.91c14.47,0,21.75-7.23,21.75-21.75h21.75q0,43.49-43.5,43.51h-43.5q-43.5,0-43.51-43.51V91.91q0-43.48,43.51-43.5h43.5q43.49,0,43.5,43.5H279.8c0-14.48-7.28-21.75-21.75-21.75h-43.5q-21.78,0-21.76,21.75v65.25q0,21.78,21.76,21.75Z"></path><path class="cls-1" d="M497.73,111.35h11.39c3.8,0,5.69,1.9,5.69,5.7a5.79,5.79,0,0,1-1.42,4.27,5.79,5.79,0,0,1,1.42,4.27c0,3.8-1.89,5.69-5.69,5.69H497.73Zm2.85,2.85v5.69h8.54a2.85,2.85,0,1,0,0-5.69Zm0,8.54v5.7h8.54a2.85,2.85,0,1,0,0-5.7Z"></path><path class="cls-1" d="M522.16,111.35H525v14.24a2.52,2.52,0,0,0,2.85,2.85h5.69a2.52,2.52,0,0,0,2.85-2.85V111.35h2.85v14.24c0,3.8-1.9,5.69-5.7,5.69h-5.69c-3.8,0-5.7-1.89-5.7-5.69Z"></path><path class="cls-1" d="M557.26,111.35v2.85H553v14.24h4.27v2.84H545.87v-2.84h4.27V114.2h-4.27v-2.85Z"></path><path class="cls-1" d="M579.52,128.44v2.84H563.86V111.35h2.84v17.09Z"></path><path class="cls-1" d="M585.58,111.35H597q5.68,0,5.69,5.7v8.54c0,3.8-1.9,5.69-5.69,5.69H585.58Zm2.85,2.85v14.24H597a2.51,2.51,0,0,0,2.84-2.85v-8.54A2.51,2.51,0,0,0,597,114.2Z"></path><path class="cls-1" d="M619.42,111.35v2.85h-4.27v14.24h4.27v2.84H608v-2.84h4.27V114.2H608v-2.85Z"></path><path class="cls-1" d="M628.4,115.62v15.66h-2.85V115.62c0-2.84,1.59-4.27,4.77-4.27s5.1,1.9,5.77,5.7l1.7,8.54c.67,1.9,1.64,2.85,2.92,2.85s1.93-.48,1.93-1.43V111.35h2.84V127q0,4.28-4.77,4.27c-3.18,0-5.1-1.89-5.76-5.69l-1.71-8.54c-.67-1.9-1.64-2.85-2.92-2.85S628.4,114.67,628.4,115.62Z"></path><path class="cls-1" d="M666.15,111.35q5.7,0,5.7,5H669c0-1.43-1-2.14-2.85-2.14H659a2.51,2.51,0,0,0-2.84,2.85v8.54a2.51,2.51,0,0,0,2.84,2.85h7.12a2.52,2.52,0,0,0,2.85-2.85v-2.85h-6.84l-.28-2.85h10v5.7c0,3.8-1.9,5.69-5.7,5.69H659c-3.79,0-5.69-1.89-5.69-5.69v-8.54q0-5.7,5.69-5.7Z"></path><path class="cls-1" d="M497.76,146.05h11.39q5.69,0,5.69,5.7v1.42q0,5.54-5.38,5.69l5.38,7.12h-3.57l-5.38-7.12h-5.28V166h-2.85Zm2.85,2.85V156h8.54a2.51,2.51,0,0,0,2.84-2.85v-1.42a2.51,2.51,0,0,0-2.84-2.85Z"></path><path class="cls-1" d="M538.84,163.13V166H521.76V146.05h17.08v2.85H524.6v5.69H536v2.85H524.6v5.69Z"></path><path class="cls-1" d="M555.6,146.05q5.68,0,5.69,5.7h-2.85a2.52,2.52,0,0,0-2.84-2.85h-5.7c-1.9,0-2.84.64-2.84,1.92s2.37,2.63,7.11,4.06,7.12,3.63,7.12,6.62-1.9,4.48-5.69,4.48h-5.7q-5.68,0-5.69-5.69h2.85a2.5,2.5,0,0,0,2.84,2.84h5.7c1.89,0,2.84-.64,2.84-1.92s-2.37-2.63-7.11-4.05-7.12-3.64-7.12-6.62,1.9-4.49,5.69-4.49Z"></path><path class="cls-1" d="M567.91,146.05H579.3c3.8,0,5.69,1.9,5.69,5.7v1.42c0,3.8-1.89,5.69-5.69,5.69h-8.54V166h-2.85Zm2.85,2.85V156h8.54a2.52,2.52,0,0,0,2.85-2.85v-1.42a2.52,2.52,0,0,0-2.85-2.85Z"></path><path class="cls-1" d="M591.41,151.75q0-5.7,5.69-5.7h7.12q5.7,0,5.7,5.7v8.54q0,5.69-5.7,5.69H597.1q-5.69,0-5.69-5.69Zm5.69-2.85a2.52,2.52,0,0,0-2.84,2.85v8.54a2.51,2.51,0,0,0,2.84,2.84h7.12a2.51,2.51,0,0,0,2.85-2.84v-8.54a2.52,2.52,0,0,0-2.85-2.85Z"></path><path class="cls-1" d="M620.18,150.32V166h-2.85V150.32q0-4.27,4.77-4.27t5.77,5.7l1.7,8.54c.67,1.9,1.64,2.84,2.92,2.84s1.92-.47,1.92-1.42V146.05h2.85v15.66q0,4.28-4.77,4.27t-5.76-5.69L625,151.75c-.67-1.9-1.64-2.85-2.92-2.85S620.18,149.37,620.18,150.32Z"></path><path class="cls-1" d="M655.45,146.05q5.7,0,5.7,5.7H658.3a2.52,2.52,0,0,0-2.85-2.85h-5.69q-2.85,0-2.85,1.92c0,1.28,2.38,2.63,7.12,4.06s7.12,3.63,7.12,6.62-1.9,4.48-5.7,4.48h-5.69c-3.8,0-5.69-1.9-5.69-5.69h2.84a2.51,2.51,0,0,0,2.85,2.84h5.69q2.85,0,2.85-1.92t-7.12-4.05q-7.11-2.15-7.11-6.62c0-3,1.89-4.49,5.69-4.49Z"></path><path class="cls-1" d="M677.85,146.05v2.85h-4.27v14.23h4.27V166H666.46v-2.85h4.27V148.9h-4.27v-2.85Z"></path><path class="cls-1" d="M691.74,166h-.36a4.33,4.33,0,0,1-3.84-3.4l-4.35-16.53h2.95L690.33,162v0h0a1.3,1.3,0,0,0,.4.73,1.36,1.36,0,0,0,1,.42h0a1.48,1.48,0,0,0,1.39-1.15h0l4.18-15.93h2.95l-4.34,16.52a4.23,4.23,0,0,1-1.19,2.16,4.07,4.07,0,0,1-2.66,1.24v0Z"></path><path class="cls-1" d="M722.84,163.13V166H705.76V146.05h17.08v2.85H708.61v5.69H720v2.85H708.61v5.69Z"></path><path class="cls-1" d="M509.18,180.74c3.8,0,5.69,1.9,5.69,5.7H512a2.52,2.52,0,0,0-2.85-2.85h-5.7c-1.89,0-2.84.64-2.84,1.92s2.37,2.64,7.12,4.06,7.11,3.63,7.11,6.62-1.89,4.48-5.69,4.48h-5.7q-5.69,0-5.69-5.69h2.85a2.52,2.52,0,0,0,2.84,2.85h5.7c1.9,0,2.85-.65,2.85-1.93s-2.38-2.63-7.12-4.05-7.12-3.63-7.12-6.62,1.9-4.49,5.69-4.49Z"></path><path class="cls-1" d="M521.35,180.74h2.85V195a2.51,2.51,0,0,0,2.84,2.85h5.7a2.51,2.51,0,0,0,2.84-2.85V180.74h2.85V195q0,5.69-5.69,5.69H527q-5.68,0-5.69-5.69Z"></path><path class="cls-1" d="M547.24,180.74h11.39q5.68,0,5.69,5.7v1.42c0,3.8-1.9,5.69-5.69,5.69h-8.55v7.12h-2.84Zm2.84,2.85v7.12h8.55a2.52,2.52,0,0,0,2.84-2.85v-1.42a2.52,2.52,0,0,0-2.84-2.85Z"></path><path class="cls-1" d="M570.89,180.74h11.38q5.7,0,5.7,5.7v1.42c0,3.8-1.9,5.69-5.7,5.69h-8.54v7.12h-2.84Zm2.84,2.85v7.12h8.54a2.52,2.52,0,0,0,2.85-2.85v-1.42a2.52,2.52,0,0,0-2.85-2.85Z"></path><path class="cls-1" d="M610.22,197.83v2.84H594.56V180.74h2.85v17.09Z"></path><path class="cls-1" d="M616.25,191.23l-7.11-10.49h3.56l5,7.36,5-7.36h3.56l-7.18,10.58v9.35h-2.85Z"></path><path class="cls-1" d="M651.43,197.83a2.52,2.52,0,0,0,2.85-2.85h2.85q0,5.69-5.7,5.69h-5.69q-5.7,0-5.7-5.69v-8.54q0-5.7,5.7-5.7h5.69q5.7,0,5.7,5.7h-2.85a2.52,2.52,0,0,0-2.85-2.85h-5.69a2.52,2.52,0,0,0-2.85,2.85V195a2.52,2.52,0,0,0,2.85,2.85Z"></path><path class="cls-1" d="M663.72,180.74h2.84v8.54h12.82v-8.54h2.84v19.93h-2.84v-8.54H666.56v8.54h-2.84Z"></path><path class="cls-1" d="M691.76,196.4l-1.13,4.27h-3L692,184.14a4.33,4.33,0,0,1,3.84-3.4v0l.36,0v0h.35a4.08,4.08,0,0,1,2.66,1.23,4.22,4.22,0,0,1,1.19,2.17l4.34,16.51h-2.95l-1.12-4.27Zm8.2-2.85-2.32-8.81v0h0a1.3,1.3,0,0,0-.4-.73,1.35,1.35,0,0,0-1-.43h0a1.48,1.48,0,0,0-1.4,1.15h0l-2.32,8.82Z"></path><path class="cls-1" d="M721.49,180.74v2.85h-4.27v14.24h4.27v2.84H710.1v-2.84h4.28V183.59H710.1v-2.85Z"></path><path class="cls-1" d="M730.48,185v15.66h-2.85V185c0-2.84,1.59-4.27,4.77-4.27s5.1,1.9,5.76,5.7l1.71,8.54c.67,1.9,1.64,2.85,2.92,2.85s1.92-.48,1.92-1.43V180.74h2.85V196.4q0,4.28-4.77,4.27T737,195l-1.71-8.54c-.67-1.9-1.64-2.85-2.92-2.85S730.48,184.06,730.48,185Z"></path><path class="cls-1" d="M105.72,115.81q-54.31-16.31-54.37-31a13.58,13.58,0,0,1,2-7.57l.09-.16c.11-.16.24-.3.35-.46q4.86-6.47,19.28-6.48h43.5q21.72,0,21.75,21.75h21.76q0-43.48-43.51-43.5H73.1c-2.46,0-4.77.11-7,.27a74,74,0,0,0-7.76.93c-.61.11-1.18.27-1.77.39-.83.18-1.69.34-2.48.55Q29.6,57,29.59,82.67q0,34.23,54.38,50.59t54.38,31a13.67,13.67,0,0,1-2,7.47c-.06.09-.1.18-.15.26s-.2.25-.29.37q-4.83,6.56-19.34,6.57H73.1c-14.48,0-21.75-7.28-21.75-21.76H29.6q0,43.5,43.5,43.51h43.5q43.49,0,43.51-34.26t-54.39-50.6"></path><path class="cls-2" d="M470.73,29.44l0,0a14.48,14.48,0,0,0-10.21-4.25H442.17A14.48,14.48,0,0,0,432,29.42l0,0a14.44,14.44,0,0,0-4.25,10.21V58a14.44,14.44,0,0,0,4.25,10.21l0,0a14.48,14.48,0,0,0,10.21,4.25h2.63v13a27.65,27.65,0,0,1-2.4,11.22,29.27,29.27,0,0,1-6.79,9.45v0a31,31,0,0,1-10,6.26,31.89,31.89,0,0,1-11.66,2.2h-44.2a46.48,46.48,0,0,0-16.86,3.12,44.58,44.58,0,0,0-14.29,8.94,41.19,41.19,0,0,0-9.5,13.25,38,38,0,0,0-3.28,15.48v22.13h-2.62A14.48,14.48,0,0,0,313,181.79l0,0A14.44,14.44,0,0,0,308.7,192v18.33A14.44,14.44,0,0,0,313,220.56l0,0a14.44,14.44,0,0,0,10.22,4.25h18.32a14.42,14.42,0,0,0,10.21-4.25l0,0A14.44,14.44,0,0,0,356,210.35V192a14.44,14.44,0,0,0-4.25-10.21l0,0a14.46,14.46,0,0,0-10.21-4.25h-2.63V155.41a27.64,27.64,0,0,1,2.4-11.21,29.42,29.42,0,0,1,6.79-9.45,31.07,31.07,0,0,1,10-6.28,31.93,31.93,0,0,1,11.66-2.2h44.2a46.48,46.48,0,0,0,16.86-3.12,44.61,44.61,0,0,0,14.29-9,41,41,0,0,0,9.5-13.25,38,38,0,0,0,3.28-15.48v-13h2.63a14.48,14.48,0,0,0,10.21-4.25l0,0A14.44,14.44,0,0,0,475,58V39.65a14.44,14.44,0,0,0-4.25-10.21M342.53,191l0,0a1.44,1.44,0,0,1,.4,1v18.33a1.43,1.43,0,0,1-.4,1l0,0a1.39,1.39,0,0,1-1,.41H323.19a1.42,1.42,0,0,1-1-.41l0,0a1.43,1.43,0,0,1-.41-1V192a1.45,1.45,0,0,1,.41-1l0,0a1.46,1.46,0,0,1,1-.41h18.32a1.43,1.43,0,0,1,1,.41M462,58a1.41,1.41,0,0,1-.41,1l0,0a1.45,1.45,0,0,1-1,.41H442.17a1.43,1.43,0,0,1-1-.41l0,0a1.45,1.45,0,0,1-.41-1V39.65a1.43,1.43,0,0,1,.41-1l0,0a1.39,1.39,0,0,1,1-.41H460.5a1.41,1.41,0,0,1,1,.41l0,0a1.39,1.39,0,0,1,.41,1Z"></path></svg>